<svg width="70" height="70" viewBox="0 0 70 70" fill="none" xmlns="http://www.w3.org/2000/svg">
<rect width="70" height="70" rx="26" fill="#0095D8"/>
<path d="M45.6875 49.25H24.3113C23.9964 49.25 23.6944 49.1249 23.4717 48.9022C23.249 48.6795 23.1238 48.3775 23.1238 48.0625V21.9375C23.1238 21.6226 23.249 21.3205 23.4717 21.0978C23.6944 20.8751 23.9964 20.75 24.3113 20.75H38.5625L46.875 29.0625V48.0625C46.875 48.2184 46.8443 48.3729 46.7846 48.5169C46.7249 48.661 46.6375 48.7919 46.5272 48.9022C46.4169 49.0125 46.286 49.0999 46.1419 49.1596C45.9979 49.2193 45.8434 49.25 45.6875 49.25Z" stroke="white" stroke-width="2" stroke-linecap="round" stroke-linejoin="round"/>
<path d="M38.5625 20.75V29.0625H46.8762" stroke="white" stroke-width="2" stroke-linecap="round" stroke-linejoin="round"/>
<path d="M30.25 36.1875H39.75" stroke="white" stroke-width="2" stroke-linecap="round" stroke-linejoin="round"/>
<path d="M30.25 40.9375H39.75" stroke="white" stroke-width="2" stroke-linecap="round" stroke-linejoin="round"/>
</svg>
