<svg width="70" height="70" viewBox="0 0 70 70" fill="none" xmlns="http://www.w3.org/2000/svg">
<rect width="70" height="70" rx="26" fill="#0095D8"/>
<path d="M45.6875 32.625V45.8194C45.6875 46.0994 45.5763 46.3679 45.3783 46.5658C45.1804 46.7638 44.9119 46.875 44.6319 46.875H21.9375C21.6226 46.875 21.3205 46.7499 21.0978 46.5272C20.8751 46.3045 20.75 46.0024 20.75 45.6875V29.0625C20.75 28.7476 20.8751 28.4455 21.0978 28.2228C21.3205 28.0001 21.6226 27.875 21.9375 27.875H28.6667C28.9236 27.875 29.1736 27.9583 29.3792 28.1125L33.4958 31.2C33.7014 31.3542 33.9514 31.4375 34.2083 31.4375H44.5C44.8149 31.4375 45.117 31.5626 45.3397 31.7853C45.5624 32.008 45.6875 32.3101 45.6875 32.625Z" stroke="white" stroke-width="2" stroke-linecap="round" stroke-linejoin="round"/>
<path d="M25.5 27.875V24.3125C25.5 23.9976 25.6251 23.6955 25.8478 23.4728C26.0705 23.2501 26.3726 23.125 26.6875 23.125H33.4167C33.6736 23.125 33.9236 23.2083 34.1292 23.3625L38.2458 26.45C38.4514 26.6042 38.7014 26.6875 38.9583 26.6875H49.25C49.5649 26.6875 49.867 26.8126 50.0897 27.0353C50.3124 27.258 50.4375 27.5601 50.4375 27.875V41.0694C50.4375 41.2081 50.4102 41.3453 50.3571 41.4734C50.3041 41.6015 50.2264 41.7178 50.1283 41.8158C50.0303 41.9139 49.914 41.9916 49.7859 42.0446C49.6578 42.0977 49.5206 42.125 49.3819 42.125H45.6875" stroke="white" stroke-width="2" stroke-linecap="round" stroke-linejoin="round"/>
</svg>
