<svg width="70" height="70" viewBox="0 0 70 70" fill="none" xmlns="http://www.w3.org/2000/svg">
<rect width="70" height="70" rx="26" fill="#0095D8"/>
<path d="M35 39.75H30.25V35L44.5 20.75L49.25 25.5L35 39.75Z" stroke="white" stroke-width="2" stroke-linecap="round" stroke-linejoin="round"/>
<path d="M40.9375 24.3125L45.6875 29.0625" stroke="white" stroke-width="2" stroke-linecap="round" stroke-linejoin="round"/>
<path d="M48.0625 33.8125V46.875C48.0625 47.1899 47.9374 47.492 47.7147 47.7147C47.492 47.9374 47.1899 48.0625 46.875 48.0625H23.125C22.8101 48.0625 22.508 47.9374 22.2853 47.7147C22.0626 47.492 21.9375 47.1899 21.9375 46.875V23.125C21.9375 22.8101 22.0626 22.508 22.2853 22.2853C22.508 22.0626 22.8101 21.9375 23.125 21.9375H36.1875" stroke="white" stroke-width="2" stroke-linecap="round" stroke-linejoin="round"/>
</svg>
